<?xml version="1.0" encoding="UTF-8"?>
<svg width="19px" height="20px" viewBox="0 0 19 20" version="1.1" xmlns="http://www.w3.org/2000/svg" xmlns:xlink="http://www.w3.org/1999/xlink">
    <!-- Generator: Sketch 51.2 (57519) - http://www.bohemiancoding.com/sketch -->
    <title>Group 3</title>
    <desc>Created with Sketch.</desc>
    <defs></defs>
    <g id="Page-1" stroke="none" stroke-width="1" fill="none" fill-rule="evenodd">
        <g id="UI" transform="translate(-392.000000, -1356.000000)" fill="#BDC0C8">
            <g id="Group-3" transform="translate(392.000000, 1356.000000)">
                <path d="M17.5703358,3.07253391 L1.16663263,3.07253391 C0.523499876,3.07253391 0,3.60159368 0,4.2515569 L0,18.1140805 C0,18.7640437 0.523499876,19.2931034 1.16663263,19.2931034 L17.5703358,19.2931034 C18.2136807,19.2931034 18.7369684,18.7640437 18.7369684,18.1140805 L18.7369684,4.2515569 C18.7369684,3.60159368 18.2136807,3.07253391 17.5703358,3.07253391 L17.5703358,3.07253391 Z M17.6763933,18.1140805 C17.6763933,18.1730316 17.6286674,18.2212644 17.5703358,18.2212644 L1.16663263,18.2212644 C1.10830099,18.2212644 1.06057511,18.1730316 1.06057511,18.1140805 L1.06057511,7.61005747 L17.6763933,7.61005747 L17.6763933,18.1140805 L17.6763933,18.1140805 Z M17.6763933,6.53821839 L1.06057511,6.53821839 L1.06057511,4.2515569 C1.06057511,4.19260575 1.10830099,4.14437299 1.16663263,4.14437299 L17.5703358,4.14437299 C17.6286674,4.14437299 17.6763933,4.19260575 17.6763933,4.2515569 L17.6763933,6.53821839 L17.6763933,6.53821839 Z M14.9895323,2.35804598 C15.2824632,2.35804598 15.5198199,2.11816839 15.5198199,1.82212644 L15.5198199,0.53591954 C15.5198199,0.239877586 15.2824632,0 14.9895323,0 C14.6966015,0 14.4592448,0.239877586 14.4592448,0.53591954 L14.4592448,1.82212644 C14.4592448,2.11816839 14.6966015,2.35804598 14.9895323,2.35804598 L14.9895323,2.35804598 Z M3.74743611,2.35804598 C4.04036695,2.35804598 4.27772366,2.11816839 4.27772366,1.82212644 L4.27772366,0.53591954 C4.27772366,0.239877586 4.04036695,0 3.74743611,0 C3.45450526,0 3.21714855,0.239877586 3.21714855,0.53591954 L3.21714855,1.82212644 C3.21714855,2.11816839 3.45450526,2.35804598 3.74743611,2.35804598 L3.74743611,2.35804598 Z" id="Shape-Copy"></path>
                <polygon id="Shape-Copy-36" transform="translate(9.500000, 12.500000) scale(-1, 1) translate(-9.500000, -12.500000) " points="9.5 9 8.8875 9.6125 11.3375 12.0625 6 12.0625 6 12.9375 11.3375 12.9375 8.8875 15.3875 9.5 16 13 12.5"></polygon>
            </g>
        </g>
    </g>
</svg>