<?xml version="1.0" encoding="UTF-8"?>
<svg width="21px" height="18px" viewBox="0 0 21 18" version="1.1" xmlns="http://www.w3.org/2000/svg" xmlns:xlink="http://www.w3.org/1999/xlink">
    <!-- Generator: Sketch 51.2 (57519) - http://www.bohemiancoding.com/sketch -->
    <title>Group Copy</title>
    <desc>Created with Sketch.</desc>
    <defs></defs>
    <g id="Page-1" stroke="none" stroke-width="1" fill="none" fill-rule="evenodd">
        <g id="UI" transform="translate(-281.000000, -1358.000000)" fill="#BDC0C8">
            <g id="Group-Copy" transform="translate(280.000000, 1356.000000)">
                <path d="M3.03313043,12.1252593 C3.35504348,12.0894815 7.28634783,12.2961111 9.14713043,11.7939259 C14.7446087,10.2834815 20.1566087,8.79818519 21.75,7.78655556 C23.8648696,6.44255556 20.1532174,5.33785185 15.3678261,6.85944444 C14.9825217,6.98207407 14.5841739,7.10859259 14.1766957,7.23822222 L9.42834783,6.12444444 L8.07886957,6.55325926 L10.0166087,8.56096296 C8.38043478,9.0812963 6.80478261,9.58244444 5.52130435,9.99077778 L1.542,7.49385185 L0.192521739,7.92292593 L2.51373913,10.9526296 C1.55347826,11.3381481 1.78226087,12.2655185 3.03313043,12.1252593 L3.03313043,12.1252593 Z" id="Shape" transform="translate(11.275192, 9.131959) rotate(-330.000000) translate(-11.275192, -9.131959) "></path>
                <rect id="Rectangle-path" x="1.50704348" y="18.8387778" width="12.299913" height="1.03703704"></rect>
            </g>
        </g>
    </g>
</svg>