<?xml version="1.0" encoding="UTF-8"?>
<svg width="22px" height="20px" viewBox="0 0 22 20" version="1.1" xmlns="http://www.w3.org/2000/svg" xmlns:xlink="http://www.w3.org/1999/xlink">
    <!-- Generator: Sketch 51.2 (57519) - http://www.bohemiancoding.com/sketch -->
    <title>Shape</title>
    <desc>Created with Sketch.</desc>
    <defs></defs>
    <g id="Page-1" stroke="none" stroke-width="1" fill="none" fill-rule="evenodd">
        <g id="UI" transform="translate(-459.000000, -1356.000000)" fill="#FF5A5F">
            <path d="M480.822436,1365.27454 L470.263511,1356.11982 C470.100354,1355.95246 469.790881,1355.96193 469.640355,1356.13877 L459.143536,1365.27559 C458.969852,1365.42823 458.950905,1365.69033 459.102483,1365.86401 C459.254062,1366.0377 459.517219,1366.05665 459.68985,1365.90612 L461.362478,1364.44612 L461.362478,1375.58399 C461.362478,1375.81452 461.548794,1376.00083 461.779319,1376.00083 L467.23615,1376.00083 C467.465623,1376.00083 467.651938,1375.81347 467.651938,1375.58399 L467.651938,1370.05348 L472.279296,1370.05348 L472.279296,1375.58399 C472.279296,1375.81452 472.467717,1376.00083 472.69719,1376.00083 L478.151915,1376.00083 C478.384546,1376.00083 478.568756,1375.81347 478.568756,1375.58399 L478.568756,1364.44191 L480.275068,1365.90401 C480.354016,1365.97243 480.45191,1366.00507 480.548752,1366.00507 C480.665594,1366.00507 480.782436,1365.95665 480.863488,1365.86296 C481.015067,1365.68928 480.996119,1365.42612 480.822436,1365.27454 L480.822436,1365.27454 Z M477.737179,1363.88612 L477.737179,1375.16715 L473.111926,1375.16715 L473.111926,1369.63453 C473.111926,1369.40506 472.926663,1369.21664 472.69719,1369.21664 L467.237202,1369.21664 C467.005624,1369.21664 466.819308,1369.40611 466.819308,1369.63453 L466.819308,1375.16715 L462.197213,1375.16715 L462.197213,1363.88612 C462.197213,1363.83665 462.184582,1363.78823 462.168792,1363.74507 L469.963512,1356.96403 L477.763495,1363.74402 C477.746653,1363.78823 477.737179,1363.8356 477.737179,1363.88612 L477.737179,1363.88612 Z" id="Shape"></path>
        </g>
    </g>
</svg>