<?xml version="1.0" encoding="UTF-8"?>
<svg width="23px" height="16px" viewBox="0 0 23 16" version="1.1" xmlns="http://www.w3.org/2000/svg" xmlns:xlink="http://www.w3.org/1999/xlink">
    <!-- Generator: Sketch 51.2 (57519) - http://www.bohemiancoding.com/sketch -->
    <title>Shape</title>
    <desc>Created with Sketch.</desc>
    <defs></defs>
    <g id="Page-1" stroke="none" stroke-width="1" fill="none" fill-rule="evenodd">
        <g id="UI" transform="translate(-774.000000, -1358.000000)" fill="#888D99">
            <path d="M795.968493,1358 L774.757534,1358 C774.324658,1358 774,1358.36073 774,1358.75753 L774,1373.04247 C774,1373.47534 774.360731,1373.8 774.757534,1373.8 L795.968493,1373.8 C796.40137,1373.8 796.726027,1373.43927 796.726027,1373.04247 L796.726027,1358.75753 C796.7621,1358.32466 796.40137,1358 795.968493,1358 L795.968493,1358 Z M795.210959,1359.51507 L795.210959,1362.00411 L785.363014,1368.42511 L775.515068,1362.04018 L775.515068,1359.55114 L795.210959,1359.55114 L795.210959,1359.51507 Z M775.515068,1372.28493 L775.515068,1363.84384 L784.930137,1369.97626 C785.074429,1370.0484 785.218721,1370.08447 785.363014,1370.08447 C785.507306,1370.08447 785.651598,1370.0484 785.79589,1369.97626 L795.210959,1363.84384 L795.210959,1372.24886 L775.515068,1372.24886 L775.515068,1372.28493 Z" id="Shape"></path>
        </g>
    </g>
</svg>