<?xml version="1.0" encoding="UTF-8"?>
<svg width="25px" height="25px" viewBox="0 0 25 25" version="1.1" xmlns="http://www.w3.org/2000/svg" xmlns:xlink="http://www.w3.org/1999/xlink">
    <!-- Generator: Sketch 51.2 (57519) - http://www.bohemiancoding.com/sketch -->
    <title>Group</title>
    <desc>Created with Sketch.</desc>
    <defs></defs>
    <g id="Page-1" stroke="none" stroke-width="1" fill="none" fill-rule="evenodd">
        <g id="UI" transform="translate(-654.000000, -1354.000000)" fill="#888D99">
            <g id="Group" transform="translate(654.000000, 1354.000000)">
                <path d="M24.4773649,9.92601351 L21.1432432,7.52668919 L20.7324324,3.43885135 C20.6959459,3.07466216 20.3760135,2.80472973 20.0097973,2.83310811 L15.9135135,3.13851351 L12.9716216,0.270945946 C12.7094595,0.0155405405 12.2905405,0.0155405405 12.0283784,0.270945946 L9.08648649,3.13851351 L4.98986486,2.83310811 C4.62297297,2.80472973 4.30371622,3.07466216 4.26722973,3.43885135 L3.85641892,7.52668919 L0.522297297,9.92601351 C0.225,10.1398649 0.152364865,10.5523649 0.358783784,10.8550676 L2.67128378,14.25 L1.65912162,18.2307432 C1.56891892,18.5864865 1.77804054,18.9486486 2.13074324,19.0476351 L6.08513514,20.1621622 L7.86891892,23.8618243 C8.02804054,24.1925676 8.42094595,24.335473 8.75540541,24.1844595 L12.5,22.4966216 L16.2449324,24.1844595 C16.3351351,24.2253378 16.4293919,24.2445946 16.5222973,24.2445946 C16.7739865,24.2445946 17.0148649,24.1033784 17.1314189,23.8618243 L18.9152027,20.1621622 L22.8689189,19.0476351 C23.2216216,18.9486486 23.4307432,18.5864865 23.3405405,18.2307432 L22.3287162,14.25 L24.6412162,10.8550676 C24.8472973,10.552027 24.7746622,10.1398649 24.4773649,9.92601351 L24.4773649,9.92601351 Z M21.0402027,13.7412162 C20.9310811,13.9010135 20.8959459,14.1 20.9435811,14.2881757 L21.8685811,17.9260135 L18.2554054,18.9442568 C18.0689189,18.9969595 17.9141892,19.127027 17.8300676,19.3013514 L16.2,22.6824324 L12.7777027,21.1405405 C12.689527,21.1003378 12.5945946,21.0804054 12.5,21.0804054 C12.4054054,21.0804054 12.310473,21.1003378 12.2222973,21.1405405 L8.80033784,22.6824324 L7.17027027,19.3013514 C7.08614865,19.127027 6.93108108,18.9972973 6.74493243,18.9442568 L3.13141892,17.9260135 L4.05641892,14.2881757 C4.10405405,14.1 4.06891892,13.9010135 3.9597973,13.7412162 L1.84628378,10.6385135 L4.89324324,8.44527027 C5.05033784,8.33243243 5.15135135,8.15743243 5.17060811,7.96486486 L5.54594595,4.22939189 L9.28986486,4.50912162 C9.48277027,4.52364865 9.67297297,4.45439189 9.81182432,4.31925676 L12.5,1.69898649 L15.1885135,4.31925676 C15.327027,4.45439189 15.5165541,4.52364865 15.710473,4.50912162 L19.4540541,4.22939189 L19.8293919,7.96486486 C19.8486486,8.15743243 19.9496622,8.33243243 20.1067568,8.44527027 L23.1537162,10.6385135 L21.0402027,13.7412162 L21.0402027,13.7412162 Z" id="Shape"></path>
                <path d="M16.2185811,8.44324324 C15.9547297,8.17939189 15.5266892,8.17939189 15.2631757,8.44324324 L8.78141892,14.9256757 C8.51756757,15.189527 8.51756757,15.6172297 8.78141892,15.8810811 C8.91351351,16.0131757 9.08614865,16.0790541 9.25912162,16.0790541 C9.43209459,16.0790541 9.60506757,16.0131757 9.73682432,15.8810811 L16.2185811,9.39864865 C16.4827703,9.1347973 16.4827703,8.70709459 16.2185811,8.44324324 L16.2185811,8.44324324 Z" id="Shape"></path>
                <path d="M11.6773649,11.3391892 C12.5601351,10.4564189 12.5601351,9.02060811 11.6773649,8.1375 C11.2496622,7.70912162 10.6810811,7.47432432 10.0763514,7.47432432 C9.47162162,7.47432432 8.90337838,7.70912162 8.47567568,8.13682432 C7.59290541,9.01959459 7.59290541,10.4560811 8.47567568,11.339527 C8.90337838,11.7665541 9.47195946,12.002027 10.0766892,12.002027 C10.6814189,12.002027 11.25,11.7668919 11.6773649,11.3391892 L11.6773649,11.3391892 Z M9.43141892,10.3837838 C9.07533784,10.0280405 9.07533784,9.44864865 9.43141892,9.09324324 C9.60371622,8.92027027 9.83277027,8.82601351 10.0766892,8.82601351 C10.3206081,8.82601351 10.5496622,8.92027027 10.7222973,9.09324324 C11.0780405,9.44898649 11.0780405,10.0283784 10.7222973,10.3837838 C10.3773649,10.7283784 9.77567568,10.7283784 9.43141892,10.3837838 L9.43141892,10.3837838 Z" id="Shape"></path>
                <path d="M14.9233108,12.3212838 C14.3185811,12.3212838 13.75,12.5567568 13.3226351,12.9844595 C12.8949324,13.4121622 12.6594595,13.9807432 12.6594595,14.5851351 C12.6594595,15.1902027 12.8949324,15.7591216 13.3226351,16.1864865 C13.7503378,16.6138514 14.3189189,16.8496622 14.9236486,16.8496622 C15.5283784,16.8496622 16.0972973,16.6141892 16.5246622,16.1864865 C17.4074324,15.3037162 17.4070946,13.8672297 16.5243243,12.9841216 C16.0966216,12.5567568 15.5283784,12.3212838 14.9233108,12.3212838 L14.9233108,12.3212838 Z M15.5689189,15.2310811 C15.2243243,15.5760135 14.622973,15.5760135 14.2780405,15.2304054 C14.1054054,15.0581081 14.010473,14.8290541 14.010473,14.5851351 C14.010473,14.3415541 14.1054054,14.1128378 14.2780405,13.9398649 C14.4503378,13.7675676 14.6793919,13.6726351 14.922973,13.6726351 C15.1668919,13.6726351 15.3959459,13.7675676 15.5685811,13.9398649 C15.925,14.2959459 15.925,14.8746622 15.5689189,15.2310811 L15.5689189,15.2310811 Z" id="Shape"></path>
            </g>
        </g>
    </g>
</svg>