<?xml version="1.0" encoding="UTF-8"?>
<svg width="15px" height="17px" viewBox="0 0 15 17" version="1.1" xmlns="http://www.w3.org/2000/svg" xmlns:xlink="http://www.w3.org/1999/xlink">
    <!-- Generator: Sketch 51.2 (57519) - http://www.bohemiancoding.com/sketch -->
    <title>Group</title>
    <desc>Created with Sketch.</desc>
    <defs></defs>
    <g id="Page-1" stroke="none" stroke-width="1" fill="none" fill-rule="evenodd">
        <g id="form" transform="translate(-1030.000000, -141.000000)" fill="#BDC0C8">
            <g id="Group" transform="translate(1030.000000, 141.000000)">
                <path d="M7.5,7.93929825 C9.90131579,7.93929825 11.8486842,6.1677193 11.8486842,3.99649123 C11.8486842,1.82526316 9.89473684,0.0536842105 7.5,0.0536842105 C5.10526316,0.0536842105 3.15131579,1.82526316 3.15131579,3.99649123 C3.15131579,6.1677193 5.10526316,7.93929825 7.5,7.93929825 L7.5,7.93929825 Z M7.5,0.948421053 C9.35526316,0.948421053 10.8618421,2.31438596 10.8618421,3.99649123 C10.8618421,5.67859649 9.35526316,7.0445614 7.5,7.0445614 C5.64473684,7.0445614 4.13815789,5.67859649 4.13815789,3.99649123 C4.13815789,2.31438596 5.64473684,0.948421053 7.5,0.948421053 L7.5,0.948421053 Z" id="Shape"></path>
                <path d="M14.8223684,13.6417544 C14.2565789,12.1564912 13.2828947,10.8859649 12.0065789,9.96736842 C10.6842105,9.01894737 9.13157895,8.51789474 7.50657895,8.51789474 C5.88157895,8.51789474 4.32894737,9.01894737 3.00657895,9.96736842 C1.72368421,10.8859649 0.75,12.1564912 0.190789474,13.6417544 C-0.118421053,14.4589474 0.0197368421,15.3596491 0.565789474,16.0515789 C1.03947368,16.6480702 1.74342105,16.9940351 2.50657895,16.9940351 L12.5197368,16.9940351 C13.2828947,16.9940351 13.9868421,16.6480702 14.4605263,16.0515789 C14.9934211,15.3596491 15.1315789,14.4589474 14.8223684,13.6417544 L14.8223684,13.6417544 Z M13.6447368,15.5266667 C13.3618421,15.8845614 12.9473684,16.0933333 12.5065789,16.0933333 L2.49342105,16.0933333 C2.05263158,16.0933333 1.64473684,15.8845614 1.35526316,15.5266667 C1,15.0733333 0.907894737,14.4768421 1.11184211,13.9280702 C1.61184211,12.6038596 2.48026316,11.4764912 3.61184211,10.6652632 C4.75657895,9.84210526 6.10526316,9.40666667 7.5,9.40666667 C8.89473684,9.40666667 10.2434211,9.84210526 11.3881579,10.6652632 C12.5197368,11.4764912 13.3815789,12.6038596 13.8881579,13.9280702 C14.0921053,14.4768421 14,15.0733333 13.6447368,15.5266667 L13.6447368,15.5266667 Z" id="Shape"></path>
            </g>
        </g>
    </g>
</svg>