<?xml version="1.0" encoding="UTF-8"?>
<svg width="19px" height="20px" viewBox="0 0 19 20" version="1.1" xmlns="http://www.w3.org/2000/svg" xmlns:xlink="http://www.w3.org/1999/xlink">
    <!-- Generator: Sketch 51.2 (57519) - http://www.bohemiancoding.com/sketch -->
    <title>Group 2</title>
    <desc>Created with Sketch.</desc>
    <defs></defs>
    <g id="Page-1" stroke="none" stroke-width="1" fill="none" fill-rule="evenodd">
        <g id="UI" transform="translate(-340.000000, -1356.000000)" fill="#BDC0C8">
            <g id="Group-2" transform="translate(340.000000, 1356.000000)">
                <path d="M17.6755358,3.07253391 L1.27183263,3.07253391 C0.628699876,3.07253391 0.1052,3.60159368 0.1052,4.2515569 L0.1052,18.1140805 C0.1052,18.7640437 0.628699876,19.2931034 1.27183263,19.2931034 L17.6755358,19.2931034 C18.3188807,19.2931034 18.8421684,18.7640437 18.8421684,18.1140805 L18.8421684,4.2515569 C18.8421684,3.60159368 18.3188807,3.07253391 17.6755358,3.07253391 L17.6755358,3.07253391 Z M17.7815933,18.1140805 C17.7815933,18.1730316 17.7338674,18.2212644 17.6755358,18.2212644 L1.27183263,18.2212644 C1.21350099,18.2212644 1.16577511,18.1730316 1.16577511,18.1140805 L1.16577511,7.61005747 L17.7815933,7.61005747 L17.7815933,18.1140805 L17.7815933,18.1140805 Z M17.7815933,6.53821839 L1.16577511,6.53821839 L1.16577511,4.2515569 C1.16577511,4.19260575 1.21350099,4.14437299 1.27183263,4.14437299 L17.6755358,4.14437299 C17.7338674,4.14437299 17.7815933,4.19260575 17.7815933,4.2515569 L17.7815933,6.53821839 L17.7815933,6.53821839 Z M15.0947323,2.35804598 C15.3876632,2.35804598 15.6250199,2.11816839 15.6250199,1.82212644 L15.6250199,0.53591954 C15.6250199,0.239877586 15.3876632,0 15.0947323,0 C14.8018015,0 14.5644448,0.239877586 14.5644448,0.53591954 L14.5644448,1.82212644 C14.5644448,2.11816839 14.8018015,2.35804598 15.0947323,2.35804598 L15.0947323,2.35804598 Z M3.85263611,2.35804598 C4.14556695,2.35804598 4.38292366,2.11816839 4.38292366,1.82212644 L4.38292366,0.53591954 C4.38292366,0.239877586 4.14556695,0 3.85263611,0 C3.55970526,0 3.32234855,0.239877586 3.32234855,0.53591954 L3.32234855,1.82212644 C3.32234855,2.11816839 3.55970526,2.35804598 3.85263611,2.35804598 L3.85263611,2.35804598 Z" id="Shape"></path>
                <polygon id="Shape-Copy-3" points="9.8137085 9.3137085 9.2012085 9.9262085 11.6512085 12.3762085 6.3137085 12.3762085 6.3137085 13.2512085 11.6512085 13.2512085 9.2012085 15.7012085 9.8137085 16.3137085 13.3137085 12.8137085"></polygon>
            </g>
        </g>
    </g>
</svg>