<?xml version="1.0" encoding="UTF-8"?>
<svg width="17px" height="15px" viewBox="0 0 17 15" version="1.1" xmlns="http://www.w3.org/2000/svg" xmlns:xlink="http://www.w3.org/1999/xlink">
    <!-- Generator: Sketch 51.2 (57519) - http://www.bohemiancoding.com/sketch -->
    <title>Shape</title>
    <desc>Created with Sketch.</desc>
    <defs></defs>
    <g id="Page-1" stroke="none" stroke-width="1" fill="none" fill-rule="evenodd">
        <g id="list" transform="translate(-701.000000, -402.000000)" fill="#BDC0C8">
            <path d="M716.222603,405.824073 C716.222603,405.82462 716.222603,405.825441 716.221782,405.827082 C716.235184,406.234341 715.503539,406.868069 715.503539,406.868069 L711.902477,408.574512 L710.700937,416.151622 L709.746927,416.521958 L709.253511,410.860528 L708.746145,410.044094 L704.500415,412.047844 L703.539839,414.991383 L703.333064,415.122396 L702.779475,412.315066 L702.493655,412.250517 L702.42473,412.23438 L702.458919,412.165455 L702.589931,411.904798 L700.769707,409.697007 L701.002193,409.619603 L703.887474,410.742917 L708.128555,408.728773 L707.818665,407.818524 L703.751264,403.848494 L704.642094,403.344958 L711.265193,407.218165 L714.867076,405.514184 C714.867076,405.514184 716.222603,405.281698 716.222603,405.824073 L716.222603,405.824073 Z" id="Shape" transform="translate(708.496155, 409.933458) rotate(-334.000000) translate(-708.496155, -409.933458) "></path>
        </g>
    </g>
</svg>