<?xml version="1.0" encoding="UTF-8"?>
<svg width="24px" height="24px" viewBox="0 0 24 24" version="1.1" xmlns="http://www.w3.org/2000/svg" xmlns:xlink="http://www.w3.org/1999/xlink">
    <!-- Generator: Sketch 51.2 (57519) - http://www.bohemiancoding.com/sketch -->
    <title>Group</title>
    <desc>Created with Sketch.</desc>
    <defs></defs>
    <g id="Page-1" stroke="none" stroke-width="1" fill="none" fill-rule="evenodd">
        <g id="UI" transform="translate(-715.000000, -1354.000000)" fill="#888D99">
            <g id="Group" transform="translate(715.000000, 1354.000000)">
                <path d="M12,15.3230769 C11.4923077,15.3230769 11.0769231,14.9076923 11.0769231,14.4 L11.0769231,13.0615385 C11.0769231,12.5538462 11.4923077,12.1384615 12,12.1384615 C13.0153846,12.1384615 13.8,11.3076923 13.8,10.3384615 C13.8,9.32307692 12.9692308,8.53846154 12,8.53846154 C10.9846154,8.53846154 10.2,9.36923077 10.2,10.3384615 C10.2,10.8461538 9.78461538,11.2615385 9.27692308,11.2615385 C8.76923077,11.2615385 8.35384615,10.8461538 8.35384615,10.3384615 C8.35384615,8.30769231 10.0153846,6.69230769 12,6.69230769 C14.0307692,6.69230769 15.6461538,8.35384615 15.6461538,10.3384615 C15.6461538,12.0461538 14.4923077,13.4769231 12.9230769,13.8923077 L12.9230769,14.4 C12.9230769,14.9076923 12.5076923,15.3230769 12,15.3230769 L12,15.3230769 Z" id="Shape"></path>
                <path d="M12,17.8615385 C11.7692308,17.8615385 11.5384615,17.7692308 11.3538462,17.5846154 C11.1692308,17.4 11.0769231,17.1692308 11.0769231,16.9384615 C11.0769231,16.7076923 11.1692308,16.4769231 11.3538462,16.2923077 C11.6769231,15.9692308 12.3230769,15.9692308 12.6461538,16.2923077 C12.8307692,16.4769231 12.9230769,16.7076923 12.9230769,16.9384615 C12.9230769,17.1692308 12.8307692,17.4 12.6461538,17.5846154 C12.4615385,17.7692308 12.2307692,17.8615385 12,17.8615385 L12,17.8615385 Z" id="Shape"></path>
                <path d="M12,23.8615385 C5.44615385,23.8615385 0.138461538,18.5538462 0.138461538,12 C0.138461538,5.44615385 5.44615385,0.138461538 12,0.138461538 C18.5538462,0.138461538 23.8615385,5.44615385 23.8615385,12 C23.8615385,18.5538462 18.5538462,23.8615385 12,23.8615385 L12,23.8615385 Z M12,1.98461538 C6.46153846,1.98461538 1.98461538,6.46153846 1.98461538,12 C1.98461538,17.5384615 6.50769231,22.0153846 12,22.0153846 C17.5384615,22.0153846 22.0153846,17.4923077 22.0153846,12 C22.0153846,6.46153846 17.5384615,1.98461538 12,1.98461538 L12,1.98461538 Z" id="Shape"></path>
            </g>
        </g>
    </g>
</svg>